<svg width="93" height="47" viewBox="0 0 93 47" fill="none" xmlns="http://www.w3.org/2000/svg">
<path d="M0.3125 14.5674C0.791667 14.6507 1.22917 14.7132 1.625 14.7549C2.02083 14.7757 2.35417 14.7965 2.625 14.8174C2.9375 14.8382 3.20833 14.8486 3.4375 14.8486C3.75 14.8278 4.11458 14.7965 4.53125 14.7549C4.88542 14.7132 5.3125 14.6611 5.8125 14.5986C6.33333 14.5361 6.92708 14.4528 7.59375 14.3486C7.28125 14.5153 7.02083 14.682 6.8125 14.8486C6.60417 14.9945 6.4375 15.1507 6.3125 15.3174C6.16667 15.5049 6.05208 15.682 5.96875 15.8486C5.86458 16.1195 5.75 16.682 5.625 17.5361C5.5 18.2653 5.34375 19.3486 5.15625 20.7861C4.98958 22.2236 4.77083 24.1715 4.5 26.6299C5.25 25.8799 5.95833 25.3174 6.625 24.9424C7.3125 24.5465 7.91667 24.2653 8.4375 24.0986C9.04167 23.9111 9.60417 23.8174 10.125 23.8174C10.7708 23.8799 11.4271 24.0882 12.0938 24.4424C12.7812 24.7757 13.4167 25.1715 14 25.6299C14.6042 26.0882 15.125 26.5778 15.5625 27.0986C16.0208 27.6195 16.3438 28.0778 16.5312 28.4736C16.6562 28.7445 16.7188 29.0986 16.7188 29.5361C16.7188 29.9528 16.6771 30.4111 16.5938 30.9111C16.5104 31.4111 16.3958 31.9215 16.25 32.4424C16.1042 32.9632 15.9583 33.4528 15.8125 33.9111C15.6875 34.3695 15.5729 34.7757 15.4688 35.1299C15.3646 35.4632 15.3021 35.7028 15.2812 35.8486C15.2396 36.1611 15.2604 36.4632 15.3438 36.7549C15.4062 37.0049 15.5312 37.2757 15.7188 37.5674C15.9062 37.8382 16.1875 38.0674 16.5625 38.2549C16.2708 38.2132 15.9583 38.182 15.625 38.1611C15.3125 38.1195 15.0104 38.0882 14.7188 38.0674C14.3854 38.0465 14.0521 38.0361 13.7188 38.0361H12.5938C12.2396 38.0361 11.8333 38.0465 11.375 38.0674C10.9167 38.0674 10.4167 38.0778 9.875 38.0986C10.1667 37.9945 10.4167 37.859 10.625 37.6924C10.8333 37.5049 11.0104 37.3278 11.1562 37.1611C11.3229 36.9736 11.4688 36.7757 11.5938 36.5674C11.6771 36.4007 11.7812 36.0882 11.9062 35.6299C12.0312 35.1507 12.1458 34.609 12.25 34.0049C12.3542 33.3799 12.4271 32.7236 12.4688 32.0361C12.5312 31.3486 12.5417 30.6924 12.5 30.0674C12.4792 29.4215 12.3854 28.8486 12.2188 28.3486C12.0729 27.8486 11.8438 27.484 11.5312 27.2549C10.5938 26.5465 9.73958 26.2028 8.96875 26.2236C8.21875 26.2236 7.5 26.5257 6.8125 27.1299C6.5625 27.359 6.32292 27.5882 6.09375 27.8174C5.88542 28.0257 5.65625 28.2757 5.40625 28.5674C5.15625 28.8382 4.92708 29.1195 4.71875 29.4111C4.71875 29.7236 4.72917 30.0674 4.75 30.4424C4.77083 30.8174 4.79167 31.182 4.8125 31.5361C4.83333 31.932 4.86458 32.3278 4.90625 32.7236C4.94792 33.3278 5.01042 33.9215 5.09375 34.5049C5.15625 35.0049 5.23958 35.557 5.34375 36.1611C5.44792 36.7445 5.58333 37.2757 5.75 37.7549C5.47917 37.7132 5.19792 37.7028 4.90625 37.7236C4.61458 37.7236 4.33333 37.7236 4.0625 37.7236C3.75 37.7445 3.44792 37.7549 3.15625 37.7549C2.88542 37.7757 2.60417 37.807 2.3125 37.8486C2.0625 37.8903 1.79167 37.932 1.5 37.9736C1.20833 37.9945 0.927083 38.0361 0.65625 38.0986C0.90625 37.6195 1.11458 37.1507 1.28125 36.6924C1.44792 36.2132 1.58333 35.7965 1.6875 35.4424C1.8125 35.0257 1.91667 34.6195 2 34.2236C2.0625 33.9111 2.10417 33.3174 2.125 32.4424C2.16667 31.5465 2.19792 30.5257 2.21875 29.3799C2.23958 28.2132 2.25 26.984 2.25 25.6924C2.25 24.4007 2.23958 23.1715 2.21875 22.0049C2.19792 20.8382 2.15625 19.8174 2.09375 18.9424C2.05208 18.0674 2 17.4632 1.9375 17.1299C1.85417 16.7965 1.73958 16.4632 1.59375 16.1299C1.46875 15.8382 1.30208 15.557 1.09375 15.2861C0.885417 14.9945 0.625 14.7549 0.3125 14.5674ZM20.3125 25.5986C20.4167 25.4736 20.4792 25.2445 20.5 24.9111C20.5417 24.557 20.625 24.1611 20.75 23.7236C20.8958 23.2861 21.1354 22.8278 21.4688 22.3486C21.8021 21.8695 22.3438 21.4215 23.0938 21.0049C23.8229 20.5882 24.5312 20.3382 25.2188 20.2549C25.9062 20.1715 26.5625 20.2028 27.1875 20.3486C27.8125 20.4945 28.3958 20.7236 28.9375 21.0361C29.5 21.3486 30.0104 21.6924 30.4688 22.0674C30.7812 22.3174 31.0312 22.682 31.2188 23.1611C31.4062 23.6195 31.5521 24.1403 31.6562 24.7236C31.7604 25.307 31.8333 25.9215 31.875 26.5674C31.9375 27.1924 31.9792 27.807 32 28.4111C32.0208 28.9945 32.0312 29.5361 32.0312 30.0361C32.0521 30.5153 32.0938 30.9111 32.1562 31.2236C32.2396 31.682 32.3854 32.0778 32.5938 32.4111C32.8021 32.7236 33.0312 32.9945 33.2812 33.2236C33.5312 33.432 33.7812 33.5986 34.0312 33.7236C34.2812 33.8486 34.5 33.9424 34.6875 34.0049C34.8125 34.0674 34.9271 34.109 35.0312 34.1299C35.2396 34.2132 35.3854 34.2132 35.4688 34.1299C35.3438 34.4215 35.2292 34.6715 35.125 34.8799C35.0208 35.0882 34.9375 35.2653 34.875 35.4111C34.7917 35.5778 34.7188 35.7132 34.6562 35.8174C34.5938 35.9424 34.5208 36.057 34.4375 36.1611C34.375 36.2653 34.2917 36.3799 34.1875 36.5049C34.0833 36.6299 33.9792 36.7653 33.875 36.9111C33.6042 36.807 33.3438 36.682 33.0938 36.5361C32.8646 36.3903 32.6562 36.2549 32.4688 36.1299C32.2396 35.984 32.0312 35.8382 31.8438 35.6924C31.6562 35.5465 31.4792 35.3799 31.3125 35.1924C31.1667 35.0257 31.0104 34.8486 30.8438 34.6611C30.6979 34.4736 30.5729 34.2653 30.4688 34.0361C30.3438 34.307 30.0417 34.6924 29.5625 35.1924C29.1042 35.6924 28.5 36.1507 27.75 36.5674C27 36.9632 26.125 37.2445 25.125 37.4111C24.1458 37.5778 23.0625 37.4632 21.875 37.0674C21.3542 36.9007 20.8646 36.6611 20.4062 36.3486C19.9479 36.0153 19.5521 35.6195 19.2188 35.1611C18.9062 34.7028 18.6771 34.182 18.5312 33.5986C18.4062 32.9945 18.4167 32.3278 18.5625 31.5986C18.7083 30.8695 18.9688 30.2549 19.3438 29.7549C19.7188 29.2549 20.1667 28.8486 20.6875 28.5361C21.2083 28.2236 21.7917 27.984 22.4375 27.8174C23.0833 27.6507 23.75 27.5361 24.4375 27.4736C24.9792 27.4528 25.5208 27.484 26.0625 27.5674C26.5208 27.6507 27 27.807 27.5 28.0361C28 28.2445 28.4271 28.5674 28.7812 29.0049C28.7604 27.9007 28.7188 27.0257 28.6562 26.3799C28.6146 25.7132 28.5729 25.2028 28.5312 24.8486C28.4479 24.432 28.375 24.1403 28.3125 23.9736C28.2083 23.8278 28.0938 23.6611 27.9688 23.4736C27.8646 23.2861 27.7292 23.1195 27.5625 22.9736C27.3958 22.807 27.1875 22.6715 26.9375 22.5674C26.6875 22.4632 26.3958 22.4215 26.0625 22.4424C25.7083 22.4632 25.4271 22.557 25.2188 22.7236C25.0104 22.8903 24.8438 23.0882 24.7188 23.3174C24.6146 23.5257 24.5521 23.7549 24.5312 24.0049C24.5104 24.2549 24.5208 24.4736 24.5625 24.6611C24.6042 24.7861 24.6667 24.9215 24.75 25.0674C24.8333 25.1924 24.9479 25.3278 25.0938 25.4736C25.2396 25.6195 25.4375 25.7445 25.6875 25.8486C25.2083 25.9111 24.7812 25.9632 24.4062 26.0049C24.0312 26.0257 23.7083 26.057 23.4375 26.0986C23.125 26.1403 22.8542 26.1715 22.625 26.1924C22.3958 26.2132 22.125 26.2549 21.8125 26.3174C21.5417 26.359 21.2083 26.4111 20.8125 26.4736C20.4167 26.5361 19.9583 26.6195 19.4375 26.7236C19.5625 26.5778 19.6771 26.4424 19.7812 26.3174C19.8854 26.1715 19.9792 26.0465 20.0625 25.9424C20.1458 25.8174 20.2292 25.7028 20.3125 25.5986ZM25 29.3174C24.625 29.3382 24.25 29.432 23.875 29.5986C23.5 29.7445 23.1667 29.9632 22.875 30.2549C22.5833 30.5257 22.3333 30.8486 22.125 31.2236C21.9375 31.5778 21.8438 31.9736 21.8438 32.4111C21.8438 32.8486 21.9479 33.234 22.1562 33.5674C22.3854 33.8799 22.6771 34.1403 23.0312 34.3486C23.4062 34.557 23.8021 34.682 24.2188 34.7236C24.6562 34.7653 25.0833 34.7236 25.5 34.5986C25.8958 34.4528 26.2708 34.2236 26.625 33.9111C26.9792 33.5778 27.2812 33.2236 27.5312 32.8486C27.7812 32.4528 27.9583 32.0674 28.0625 31.6924C28.1667 31.2965 28.1771 30.9736 28.0938 30.7236C27.9271 30.182 27.5521 29.807 26.9688 29.5986C26.3854 29.3695 25.7292 29.2757 25 29.3174ZM35.3125 23.8799C35.8542 23.984 36.3229 24.0674 36.7188 24.1299C37.1354 24.1715 37.4896 24.2132 37.7812 24.2549C38.1146 24.2965 38.4062 24.3278 38.6562 24.3486C38.9062 24.3695 39.1979 24.3903 39.5312 24.4111C40.0938 24.432 40.8854 24.432 41.9062 24.4111C41.3021 24.3695 40.8229 24.5257 40.4688 24.8799C40.1354 25.2132 39.8854 25.5986 39.7188 26.0361C39.5104 26.557 39.3958 27.1611 39.375 27.8486C39.3333 28.7653 39.3542 29.5986 39.4375 30.3486C39.5417 31.0778 39.7188 31.7028 39.9688 32.2236C40.2396 32.7236 40.5938 33.0986 41.0312 33.3486C41.4688 33.5778 42.0312 33.6403 42.7188 33.5361C43.4062 33.432 43.9271 33.1924 44.2812 32.8174C44.6562 32.4215 44.9271 31.9424 45.0938 31.3799C45.2604 30.7965 45.3542 30.1403 45.375 29.4111C45.4167 28.682 45.4479 27.9215 45.4688 27.1299C45.4688 26.3382 45.4583 25.7757 45.4375 25.4424C45.4375 25.0882 45.4271 24.859 45.4062 24.7549C45.3854 24.6507 45.3542 24.609 45.3125 24.6299C45.2708 24.6299 45.2188 24.5778 45.1562 24.4736C45.1146 24.3903 45.0521 24.307 44.9688 24.2236C44.9062 24.1403 44.8229 24.0465 44.7188 23.9424C44.6146 23.8174 44.5 23.6924 44.375 23.5674C44.9167 23.5882 45.3958 23.609 45.8125 23.6299C46.25 23.6299 46.6146 23.6403 46.9062 23.6611C47.2396 23.682 47.5312 23.7028 47.7812 23.7236C48.0104 23.7445 48.3125 23.7757 48.6875 23.8174C49 23.859 49.4062 23.9007 49.9062 23.9424C50.4062 23.984 51 24.0465 51.6875 24.1299C51.2083 24.234 50.8229 24.3903 50.5312 24.5986C50.2396 24.807 50.0104 25.0153 49.8438 25.2236C49.6562 25.4528 49.5208 25.7028 49.4375 25.9736C49.375 26.3278 49.375 26.8695 49.4375 27.5986C49.4792 28.2445 49.5833 29.1299 49.75 30.2549C49.9167 31.3799 50.1771 32.859 50.5312 34.6924L48.0625 36.1611L47.5625 32.0049C46.9583 33.0257 46.3125 33.8174 45.625 34.3799C44.9583 34.9215 44.3333 35.3174 43.75 35.5674C43.0625 35.859 42.3958 36.0257 41.75 36.0674C40.8958 36.0674 40.1562 36.0153 39.5312 35.9111C38.9271 35.7861 38.4062 35.6299 37.9688 35.4424C37.5312 35.2549 37.1771 35.0465 36.9062 34.8174C36.6562 34.5674 36.4688 34.3174 36.3438 34.0674C36.0521 33.5465 35.8958 32.8799 35.875 32.0674C35.8542 31.234 35.8854 30.4111 35.9688 29.5986C36.0521 28.7653 36.1458 28.0049 36.25 27.3174C36.3542 26.6299 36.3854 26.1611 36.3438 25.9111C36.3021 25.7236 36.2396 25.5153 36.1562 25.2861C36.0729 25.0986 35.9688 24.8903 35.8438 24.6611C35.7188 24.4111 35.5417 24.1507 35.3125 23.8799ZM53.125 34.8174C53.2708 34.1299 53.375 33.5257 53.4375 33.0049C53.5208 32.4632 53.5833 32.0153 53.625 31.6611C53.6667 31.2445 53.6875 30.8903 53.6875 30.5986C53.6667 30.2445 53.6458 29.8278 53.625 29.3486C53.625 28.8486 53.6042 28.359 53.5625 27.8799C53.5417 27.3799 53.5104 26.9424 53.4688 26.5674C53.4271 26.1715 53.375 25.8903 53.3125 25.7236C53.2292 25.557 53.1146 25.3799 52.9688 25.1924C52.6771 24.8382 52.25 24.4945 51.6875 24.1611C52.1667 24.057 52.5729 23.9736 52.9062 23.9111C53.2604 23.8278 53.5521 23.7549 53.7812 23.6924C54.0312 23.609 54.25 23.5361 54.4375 23.4736C54.6042 23.4111 54.8021 23.3486 55.0312 23.2861C55.2188 23.2445 55.4479 23.1924 55.7188 23.1299C55.9896 23.0674 56.3021 22.9945 56.6562 22.9111L56.5625 25.7549C57.2292 24.9632 57.9062 24.3695 58.5938 23.9736C59.2812 23.5778 59.9271 23.2965 60.5312 23.1299C61.2188 22.9215 61.8958 22.8174 62.5625 22.8174C63.3958 22.859 64.1667 22.9945 64.875 23.2236C65.6042 23.4528 66.2292 23.7236 66.75 24.0361C67.2917 24.3278 67.7292 24.6403 68.0625 24.9736C68.3958 25.307 68.5938 25.5986 68.6562 25.8486C68.9062 26.6611 68.9688 27.4111 68.8438 28.0986C68.7188 28.7653 68.5521 29.4215 68.3438 30.0674C68.1562 30.6924 67.9896 31.3174 67.8438 31.9424C67.7188 32.5674 67.7708 33.2445 68 33.9736C68.0833 34.1611 68.1667 34.3486 68.25 34.5361C68.3333 34.7028 68.4375 34.8695 68.5625 35.0361C68.6875 35.2028 68.8333 35.3382 69 35.4424C68.7708 35.4215 68.5417 35.4111 68.3125 35.4111C68.0833 35.3903 67.875 35.3695 67.6875 35.3486C67.4583 35.3278 67.25 35.307 67.0625 35.2861C66.8542 35.2653 66.5729 35.2549 66.2188 35.2549C65.6146 35.2549 64.6771 35.2861 63.4062 35.3486C63.5938 34.9111 63.7396 34.5465 63.8438 34.2549C63.9688 33.9424 64.0729 33.6924 64.1562 33.5049C64.2396 33.2757 64.3021 33.0986 64.3438 32.9736C64.5938 32.3695 64.7396 31.682 64.7812 30.9111C64.8438 30.1403 64.7917 29.359 64.625 28.5674C64.5625 28.2965 64.4583 27.9736 64.3125 27.5986C64.1667 27.2236 63.9688 26.859 63.7188 26.5049C63.4896 26.1507 63.2083 25.8486 62.875 25.5986C62.5625 25.3486 62.1979 25.2028 61.7812 25.1611C61.3646 25.1195 60.8958 25.2236 60.375 25.4736C59.875 25.7236 59.3333 26.182 58.75 26.8486C58.3125 27.4111 57.9688 28.0986 57.7188 28.9111C57.4896 29.5986 57.3333 30.4632 57.25 31.5049C57.1667 32.5257 57.2917 33.7236 57.625 35.0986C57.3333 35.057 57.0625 35.0361 56.8125 35.0361C56.5625 35.0153 56.3542 34.9945 56.1875 34.9736C55.9792 34.9528 55.7917 34.932 55.625 34.9111C55.4375 34.9111 55.2292 34.9007 55 34.8799C54.7917 34.8799 54.5312 34.8799 54.2188 34.8799C53.9062 34.859 53.5417 34.8382 53.125 34.8174ZM70.5312 18.5674C71.1562 18.6299 71.6771 18.682 72.0938 18.7236C72.5312 18.7653 72.8854 18.7965 73.1562 18.8174C73.4688 18.8382 73.7188 18.8486 73.9062 18.8486C74.0938 18.8695 74.3438 18.8695 74.6562 18.8486C74.9271 18.8278 75.2812 18.807 75.7188 18.7861C76.1562 18.7445 76.7083 18.682 77.375 18.5986C77.2292 18.807 77.1146 18.9945 77.0312 19.1611C76.9479 19.307 76.875 19.4424 76.8125 19.5674L76.625 19.9424C76.5833 20.0674 76.5417 20.1924 76.5 20.3174C76.4583 20.4215 76.4167 20.5465 76.375 20.6924C76.3542 20.8382 76.3333 20.9945 76.3125 21.1611H81.125L80.6875 23.6924L76.2812 23.4424C76.1771 24.5049 76.1042 25.3278 76.0625 25.9111C76.0208 26.4945 75.9792 26.9215 75.9375 27.1924L75.875 27.7549C75.8125 28.5465 75.75 29.4111 75.6875 30.3486C75.625 31.2653 75.6042 32.1195 75.625 32.9111C75.6458 33.7028 75.7188 34.3695 75.8438 34.9111C75.9688 35.432 76.1875 35.6924 76.5 35.6924C76.8125 35.6924 77.1042 35.609 77.375 35.4424C77.6458 35.2757 77.875 35.0778 78.0625 34.8486C78.2708 34.6195 78.4271 34.3903 78.5312 34.1611C78.6354 33.9111 78.6875 33.7236 78.6875 33.5986C78.6875 33.4736 78.6562 33.3278 78.5938 33.1611C78.4896 32.8486 78.3021 32.4528 78.0312 31.9736C78.6354 32.1195 79.1667 32.2653 79.625 32.4111C79.8542 32.4945 80.0625 32.5778 80.25 32.6611C80.4583 32.7445 80.6979 32.8382 80.9688 32.9424C81.1979 33.0465 81.4896 33.1715 81.8438 33.3174C82.1979 33.4632 82.6146 33.6403 83.0938 33.8486C82.6354 33.932 82.3021 34.0674 82.0938 34.2549C81.9688 34.3382 81.875 34.432 81.8125 34.5361C81.6667 34.7653 81.5 35.0778 81.3125 35.4736C81.125 35.8486 80.8438 36.2236 80.4688 36.5986C80.0938 36.9736 79.5833 37.307 78.9375 37.5986C78.3125 37.8903 77.4688 38.057 76.4062 38.0986C75.3021 38.1403 74.4583 37.9528 73.875 37.5361C73.3125 37.1195 72.8958 36.6403 72.625 36.0986C72.375 35.5361 72.2292 34.984 72.1875 34.4424C72.1458 33.9007 72.1146 33.5361 72.0938 33.3486C72.0729 33.1611 72.0729 32.6924 72.0938 31.9424C72.1146 31.1924 72.1458 30.3695 72.1875 29.4736C72.2292 28.557 72.2708 27.682 72.3125 26.8486C72.3542 25.9945 72.375 25.3695 72.375 24.9736C72.375 24.7653 72.3854 24.5465 72.4062 24.3174C72.4062 24.1299 72.4062 23.932 72.4062 23.7236C72.4271 23.4945 72.4375 23.2757 72.4375 23.0674L67.9062 23.0361L67.7188 21.2549L72.2812 21.3799C72.2396 21.1507 72.1875 20.9424 72.125 20.7549C72.0833 20.5465 72.0417 20.3799 72 20.2549C71.9375 20.109 71.875 19.984 71.8125 19.8799C71.7292 19.7757 71.6354 19.6611 71.5312 19.5361C71.4271 19.432 71.2917 19.2965 71.125 19.1299C70.9583 18.9632 70.7604 18.7757 70.5312 18.5674Z" fill="white"/>
<path d="M82.64 15.424V14.32L88.256 6.544H90V14.16H91.6V15.424H90V18H88.56V15.424H82.64ZM88.624 8.064L84.32 14.16H88.624V8.064Z" fill="white"/>
</svg>
